<?xml version="1.0" encoding="UTF-8" standalone="no"?>
<!-- Created with Inkscape (http://www.inkscape.org/) -->

<svg
   xmlns:dc="http://purl.org/dc/elements/1.1/"
   xmlns:cc="http://creativecommons.org/ns#"
   xmlns:rdf="http://www.w3.org/1999/02/22-rdf-syntax-ns#"
   xmlns:svg="http://www.w3.org/2000/svg"
   xmlns="http://www.w3.org/2000/svg"
   xmlns:sodipodi="http://sodipodi.sourceforge.net/DTD/sodipodi-0.dtd"
   xmlns:inkscape="http://www.inkscape.org/namespaces/inkscape"
   width="81.953865mm"
   height="133.9626mm"
   viewBox="0 0 81.953865 133.9626"
   version="1.1"
   id="svg8"
   inkscape:version="0.92.4 (5da689c313, 2019-01-14)"
   sodipodi:docname="full-logo.svg">
  <defs
     id="defs2" />
  <sodipodi:namedview
     id="base"
     pagecolor="#ffffff"
     bordercolor="#666666"
     borderopacity="1.0"
     inkscape:pageopacity="0.0"
     inkscape:pageshadow="2"
     inkscape:zoom="1.979899"
     inkscape:cx="24.990635"
     inkscape:cy="370.59359"
     inkscape:document-units="mm"
     inkscape:current-layer="layer1-4"
     showgrid="false"
     fit-margin-top="0"
     fit-margin-left="0"
     fit-margin-right="0"
     fit-margin-bottom="0"
     inkscape:window-width="1920"
     inkscape:window-height="1001"
     inkscape:window-x="-9"
     inkscape:window-y="-9"
     inkscape:window-maximized="1"
     inkscape:pagecheckerboard="true" />
  <metadata
     id="metadata5">
    <rdf:RDF>
      <cc:Work
         rdf:about="">
        <dc:format>image/svg+xml</dc:format>
        <dc:type
           rdf:resource="http://purl.org/dc/dcmitype/StillImage" />
        <dc:title></dc:title>
      </cc:Work>
    </rdf:RDF>
  </metadata>
  <g
     inkscape:label="Layer 1"
     inkscape:groupmode="layer"
     id="layer1"
     transform="translate(-48.981401,-28.935366)">
    <g
       transform="translate(-15.119048,-23.152576)"
       id="layer1-4"
       inkscape:label="Layer 1">
      <g
         inkscape:label="Ebene 1"
         id="layer1-9"
         transform="matrix(0.64,0,0,0.64,39.261103,19.277018)">
        <path
           inkscape:connector-curvature="0"
           style="fill:#000000;fill-opacity:1"
           d="m 97.898894,231.02551 c -0.0604,-0.50043 -0.25213,-1.11941 -0.42607,-1.37551 -0.226848,-0.33399 -0.308429,-0.77922 -0.288577,-1.57491 0.02465,-0.98821 -0.01056,-1.10928 -0.322611,-1.10928 -0.299763,0 -0.350287,0.128 -0.350287,0.88743 0,0.48808 -0.06543,0.88742 -0.145391,0.88742 -0.313415,0 -1.303717,-1.19922 -1.685499,-2.04107 -0.326048,-0.71896 -0.427507,-1.37598 -0.534455,-3.46095 -0.07261,-1.41544 -0.197147,-2.73327 -0.27676,-2.9285 -0.136222,-0.33405 -0.152173,-0.32883 -0.270703,0.0887 -0.06927,0.24404 -0.134065,0.70328 -0.143981,1.02054 l -0.01803,0.57682 h -1.059075 -1.059076 l -0.107897,-1.13381 c -0.130124,-1.36737 -0.645753,-2.8686 -1.41064,-4.10703 -0.311349,-0.5041 -1.731845,-2.18566 -3.156658,-3.7368 -1.987885,-2.16414 -2.633191,-2.98635 -2.773773,-3.5342 -0.251706,-0.98089 -1.037619,-1.65198 -3.244869,-2.77078 -1.803167,-0.91397 -3.104719,-1.97739 -3.104719,-2.53665 0,-0.38411 -2.514512,-2.61735 -8.229661,-7.3091 -5.299759,-4.35073 -8.999035,-7.63862 -11.183085,-9.93944 -1.050254,-1.1064 -1.257373,-1.24775 -1.728889,-1.17984 -1.20163,0.17306 -2.890624,-0.85433 -3.272862,-1.99083 -0.126783,-0.37697 -0.725609,-1.05991 -1.638888,-1.86912 -0.966783,-0.8566 -1.439108,-1.40301 -1.439108,-1.66483 0,-0.21434 -0.335153,-0.82684 -0.744784,-1.36111 -2.118149,-2.76261 -4.448167,-9.10571 -5.037991,-13.71512 -0.105313,-0.82302 -0.275999,-1.34906 -0.521016,-1.60574 -0.225636,-0.23638 -0.386195,-0.68588 -0.421645,-1.18043 -0.05614,-0.78318 -0.07042,-0.79975 -0.73552,-0.85377 l -0.678269,-0.0551 -8.32e-4,-1.27605 c -6.48e-4,-0.99218 -0.120781,-1.57863 -0.540026,-2.63622 -1.009585,-2.54679 -1.913062,-7.93467 -2.346317,-13.99225 -0.325592,-4.55229 -0.281087,-5.19073 0.527648,-7.56923 1.194412,-3.51279 2.17706,-9.41301 2.470509,-14.83395 0.101599,-1.87685 0.178993,-2.30906 0.457822,-2.55667 0.250444,-0.2224 0.335739,-0.54986 0.336282,-1.29101 0.0016,-2.13313 1.180319,-7.73288 2.832007,-13.45363 0.966432,-3.34731 1.012425,-3.59951 0.975083,-5.346769 -0.04389,-2.05379 -0.0962,-2.185455 -1.747846,-4.399626 -1.319608,-1.769048 -2.500875,-3.856898 -2.950199,-5.21438 -0.378015,-1.142046 -0.646023,-1.638884 -1.767583,-3.276772 -1.044806,-1.525801 -1.290488,-3.458806 -1.021601,-8.037873 0.112225,-1.911144 0.134491,-1.996702 0.519646,-1.996702 0.221318,0 0.514103,-0.132314 0.650633,-0.294032 0.13653,-0.161717 1.224944,-1.094288 2.418697,-2.072379 1.193753,-0.97809 2.333244,-1.956327 2.532203,-2.173859 0.198959,-0.217533 0.649439,-0.483502 1.001066,-0.591043 0.583097,-0.178333 3.85476,-1.890019 4.912911,-2.570363 0.414604,-0.266571 0.475003,-0.257393 1.051178,0.159735 0.336214,0.243406 0.770796,0.442556 0.965738,0.442556 0.194942,0 0.86384,0.279538 1.486441,0.621196 1.544894,0.847776 2.151253,0.828049 3.071321,-0.09992 0.393237,-0.396613 0.979501,-0.882336 1.302809,-1.079383 0.332046,-0.202373 0.587833,-0.506429 0.587833,-0.698762 0,-0.256783 0.127957,-0.340493 0.520469,-0.340493 0.286257,0 0.631499,-0.131279 0.767203,-0.291731 0.135704,-0.160452 0.813065,-0.682001 1.505246,-1.158997 1.26155,-0.869362 2.410268,-1.298753 3.863583,-1.444206 0.456533,-0.04569 0.947284,-0.233782 1.187323,-0.455063 0.225034,-0.20745 0.485298,-0.379881 0.578366,-0.383181 0.09307,-0.0033 0.591091,-0.622277 1.106718,-1.375505 0.515627,-0.753229 1.615578,-2.12521 2.444336,-3.048848 1.42751,-1.590938 1.559065,-1.690208 2.499058,-1.885771 0.545724,-0.113537 1.561971,-0.465894 2.258327,-0.783016 1.367761,-0.62288 6.818048,-2.662514 7.114743,-2.662514 0.09956,0 0.60503,-0.355149 1.123262,-0.78922 0.518231,-0.434071 1.208664,-0.91328 1.534295,-1.064908 0.689269,-0.320955 2.041324,-0.351372 3.702639,-0.0833 0.646617,0.104339 2.101599,0.212134 3.233295,0.239544 l 2.057628,0.04984 2.554604,1.269859 c 1.71341,0.851718 2.852377,1.305914 3.458947,1.379358 0.4974,0.06022 1.14854,0.250324 1.44698,0.422441 0.29843,0.172118 0.81138,0.368752 1.13987,0.436964 1.51156,0.313878 4.68902,2.985431 5.4001,4.540315 l 0.33315,0.728469 1.80872,-0.0865 c 0.99479,-0.04758 2.03668,-0.173693 2.31531,-0.280255 0.55952,-0.213991 0.58604,-0.194419 1.99301,1.471211 0.53376,0.631888 0.81142,0.817904 1.22088,0.817904 0.45989,0 0.53,0.06573 0.53,0.496957 0,0.63068 0.29781,0.92292 0.94053,0.92292 0.43829,0 0.50644,0.06929 0.50644,0.514893 0,0.619388 1.10956,1.608633 3.88874,3.46705 0.99479,0.665212 2.2703,1.598835 2.83445,2.074717 0.9043,0.762814 1.12377,0.86524 1.85393,0.86524 0.70763,0 0.82821,0.05168 0.82821,0.35497 0,0.229327 0.12058,0.354969 0.34067,0.354969 0.29168,0 0.35164,0.169053 0.41695,1.175533 0.0718,1.106326 0.11959,1.215171 0.81186,1.848819 0.60698,0.555586 1.14782,0.800434 3.09376,1.400604 1.9039,0.587207 2.57909,0.88922 3.50491,1.56776 l 1.14674,0.840442 -0.67827,0.05509 c -0.53136,0.04315 -0.67827,0.12965 -0.67827,0.39934 0,0.283309 -0.12809,0.344256 -0.72349,0.344256 -0.61058,0 -0.72348,0.05722 -0.72348,0.366637 0,0.579452 0.25988,0.92214 1.52757,2.014263 l 1.18641,1.02211 0.55604,-0.459113 c 0.40617,-0.335368 0.76211,-0.459113 1.3206,-0.459113 0.64312,0 0.86357,0.102007 1.38788,0.642178 0.34282,0.353197 2.01641,1.545518 3.7191,2.649602 3.46882,2.249317 5.03979,3.570851 5.63495,4.740223 0.50133,0.985018 0.50929,1.629573 0.0309,2.505392 -0.2999,0.549062 -0.34951,0.861235 -0.25494,1.604036 0.0926,0.727052 0.0565,0.971892 -0.17025,1.15658 -0.15822,0.128857 -0.28768,0.497423 -0.28768,0.819035 0,1.284462 0.87492,2.584252 4.13084,6.136829 0.92899,1.01363 1.84504,2.14003 2.03567,2.50312 0.54053,1.02953 0.88749,2.57932 0.88749,3.96422 0,1.0309 0.0657,1.32468 0.35334,1.58012 0.19434,0.17259 0.45425,0.75622 0.57757,1.29697 0.15388,0.67473 0.48281,1.3159 1.04841,2.04365 2.04207,2.62748 2.64833,3.56735 3.80328,5.89604 2.68362,5.41093 3.6862,9.15464 3.89755,14.55374 0.10577,2.70194 0.1568,3.05816 0.48832,3.40878 0.33875,0.35828 0.36165,0.54676 0.26954,2.21856 -0.0701,1.27199 -0.24432,2.25836 -0.57354,3.24689 -0.8974,2.69459 -1.18763,4.19321 -1.28898,6.65568 -0.0736,1.78948 -0.18577,2.59823 -0.4429,3.19472 -0.56334,1.3068 -1.89989,4.96046 -2.33569,6.38497 -0.42883,1.40174 -1.10005,2.8295 -1.66128,3.53373 -0.28549,0.35824 -0.33732,0.74315 -0.33732,2.50496 v 2.08168 l -1.4216,2.90833 c -2.60316,5.32557 -4.09174,7.6094 -6.83995,10.49408 -1.88507,1.97867 -2.59519,2.93895 -3.95902,5.35372 -0.49094,0.86926 -1.22738,1.94748 -1.63653,2.39604 -0.40915,0.44857 -0.99192,1.29479 -1.29506,1.88049 -0.55498,1.07229 -1.18432,1.86359 -1.48216,1.86359 -0.34139,0 -0.68436,-0.54005 -0.8022,-1.26314 l -0.12295,-0.75451 -1.34908,1.31498 c -1.03215,1.00607 -1.34908,1.43068 -1.34908,1.8075 0,0.37421 -0.0869,0.49253 -0.36174,0.49253 -0.24116,0 -0.36174,0.11832 -0.36174,0.35497 0,0.24891 -0.1216,0.35586 -0.40696,0.35796 -0.26541,0.002 -1.16116,0.69029 -2.57529,1.97901 -1.19258,1.08681 -3.89944,3.40612 -6.01525,5.15402 -2.11581,1.7479 -4.9655,4.21097 -6.33264,5.47349 -1.36715,1.26252 -2.60781,2.29754 -2.75703,2.30004 -0.14922,0.003 -1.00384,0.57306 -1.89915,1.2679 -3.58903,2.78537 -7.94681,5.38022 -9.63142,5.73504 -0.40417,0.0851 -0.58783,0.22571 -0.58783,0.44997 0,0.24797 -0.21821,0.37208 -0.91033,0.51773 -1.31517,0.27677 -2.27472,0.81183 -3.48895,1.94549 -2.69017,2.51165 -4.946767,6.99592 -5.146757,10.22753 -0.0763,1.23355 -0.15795,1.50722 -0.62183,2.08545 -0.29368,0.36606 -0.59717,0.66556 -0.67443,0.66556 -0.0773,0 -0.1899,-0.40944 -0.2503,-0.90987 z m 1.75248,-6.16373 c 1.003396,-2.42096 3.141286,-5.56021 4.652006,-6.83097 0.992,-0.83443 2.41924,-1.63744 3.19592,-1.79814 0.41015,-0.0849 0.58783,-0.22222 0.58783,-0.45445 0,-0.24705 0.1748,-0.36068 0.67827,-0.44094 2.11998,-0.33792 6.94593,-3.16462 10.60886,-6.21391 0.64147,-0.53401 1.30992,-0.97093 1.48543,-0.97093 0.17552,0 1.09739,-0.73878 2.0486,-1.64173 2.36609,-2.24604 4.17259,-3.80292 9.14434,-7.88081 1.19375,-0.97913 3.03642,-2.59157 4.09483,-3.5832 1.05841,-0.99163 2.01476,-1.80297 2.12524,-1.80297 0.11048,0 0.20087,-0.15973 0.20087,-0.35496 0,-0.19524 0.1166,-0.35497 0.25912,-0.35497 0.14252,0 0.30512,-0.13977 0.36133,-0.3106 0.0562,-0.17083 1.07587,-1.25386 2.26589,-2.40674 l 2.16367,-2.09615 0.0524,1.54993 0.0524,1.54992 0.56537,-1.07769 c 0.31095,-0.59273 1.00966,-1.62482 1.5527,-2.29354 0.54304,-0.66871 1.29808,-1.77492 1.67788,-2.45823 1.18783,-2.13712 1.93301,-3.13579 3.77177,-5.05483 2.36463,-2.46786 3.94039,-4.82809 6.20325,-9.29144 l 1.87443,-3.69719 v -2.27118 c 0,-1.83966 0.0535,-2.31478 0.28173,-2.50062 0.55144,-0.44909 1.22847,-1.82787 1.89925,-3.86787 0.37424,-1.13816 1.02089,-2.94793 1.43699,-4.02171 0.99628,-2.57094 1.04149,-2.77691 1.24669,-5.67951 0.16936,-2.39574 0.31716,-3.11048 1.35291,-6.54241 0.61486,-2.03732 0.66616,-4.185 0.11294,-4.72786 -0.32673,-0.32062 -0.36174,-0.59162 -0.36174,-2.80004 0,-3.05223 -0.22652,-4.90104 -0.91205,-7.44411 -1.18185,-4.38425 -4.01039,-10.36274 -5.81767,-12.2964 -1.19166,-1.27499 -2.12139,-2.8936 -2.12902,-3.70653 -0.002,-0.23268 -0.19975,-0.59209 -0.43903,-0.79868 -0.40099,-0.34621 -0.44006,-0.52848 -0.49896,-2.32795 -0.0835,-2.55047 -0.42167,-3.22848 -2.96553,-5.94573 -3.27622,-3.499515 -4.34085,-5.375623 -3.87763,-6.833161 0.1241,-0.390466 0.26391,-1.226402 0.3107,-1.857635 0.0468,-0.631234 0.19943,-1.307916 0.33921,-1.50374 0.97654,-1.368095 -0.52097,-3.122858 -5.28657,-6.194716 -1.5784,-1.017424 -3.15469,-2.13627 -3.50287,-2.486325 -0.74167,-0.745672 -1.55655,-0.860367 -2.08002,-0.292765 -0.60429,0.655224 -1.30737,0.456012 -2.83998,-0.804683 -1.47363,-1.212186 -1.76911,-1.736721 -1.77124,-3.14435 -0.001,-0.658337 0.007,-0.665567 0.72247,-0.665567 0.59048,0 0.72349,-0.06206 0.72349,-0.337576 0,-0.274803 -0.39519,-0.461535 -2.12524,-1.004192 -2.43571,-0.763999 -3.58361,-1.284438 -4.15142,-1.882181 -0.51636,-0.543591 -0.95821,-1.591415 -0.95821,-2.272374 0,-0.419832 -0.0795,-0.538155 -0.36174,-0.538155 -0.24825,0 -0.36174,-0.118323 -0.36174,-0.377155 0,-0.324178 -0.076,-0.362236 -0.54117,-0.270947 -0.47081,0.0924 -0.68834,-0.0231 -1.67306,-0.888274 -0.62255,-0.546964 -1.98414,-1.556809 -3.02577,-2.244099 -1.04163,-0.687291 -2.46599,-1.791591 -3.16525,-2.454 -0.69926,-0.662409 -1.49521,-1.390113 -1.76878,-1.61712 -0.27357,-0.227008 -0.4974,-0.51201 -0.4974,-0.633339 0,-0.121329 -0.19791,-0.294433 -0.43979,-0.384675 -0.24189,-0.09024 -0.83198,-0.650583 -1.31132,-1.245201 -0.74165,-0.920014 -0.93891,-1.067024 -1.32371,-0.986507 -0.2487,0.05204 -1.44923,0.147285 -2.66786,0.211659 -2.19601,0.116004 -2.21567,0.11359 -2.21567,-0.27197 0,-1.309232 -2.29458,-3.691674 -4.54609,-4.720165 -0.53377,-0.243828 -1.14102,-0.444105 -1.34943,-0.445058 -0.20841,-9.54e-4 -0.52624,-0.16147 -0.7063,-0.356704 -0.2316,-0.251125 -0.55708,-0.354969 -1.11257,-0.354969 -0.62251,0 -1.300656,-0.264082 -3.272876,-1.274502 l -2.487673,-1.274501 -2.532203,-0.124501 c -1.392712,-0.06848 -3.091159,-0.223594 -3.774327,-0.344709 -1.608362,-0.285137 -2.323628,-0.08081 -3.62301,1.034954 -0.656657,0.563866 -1.333545,0.951279 -2.038194,1.166551 -1.441149,0.440275 -7.291019,2.728067 -7.786131,3.045034 -0.220329,0.141052 -0.717171,0.256459 -1.104094,0.256459 -0.672637,0 -0.775539,0.0841 -2.345829,1.917193 -1.930254,2.2533 -2.932167,3.666258 -2.932167,4.13512 0,0.252188 -0.129655,0.337134 -0.514582,0.337134 -0.28302,0 -0.653752,0.150901 -0.823849,0.335335 -0.209923,0.227619 -0.677311,0.374013 -1.455036,0.45574 -1.4406,0.151386 -3.00852,0.868798 -4.235154,1.937823 -0.517994,0.451437 -1.061179,0.820794 -1.207077,0.820794 -0.145899,0 -0.26527,0.158215 -0.26527,0.351588 0,0.2377 -0.161119,0.388369 -0.497397,0.465137 -0.273569,0.06245 -1.000059,0.594902 -1.614423,1.183222 l -1.117025,1.069672 -1.018963,-0.103197 c -0.704303,-0.07133 -1.290093,-0.273923 -1.896965,-0.656059 -0.482902,-0.304075 -1.190248,-0.599699 -1.571881,-0.656943 -0.381633,-0.05724 -0.833284,-0.222765 -1.003669,-0.367823 -0.279797,-0.238208 -0.509842,-0.149749 -2.376066,0.91366 -1.136452,0.647571 -2.340019,1.26675 -2.674592,1.375953 -0.334574,0.109202 -0.933886,0.494236 -1.331803,0.85563 -0.397918,0.361394 -1.456017,1.260146 -2.351332,1.997228 -0.895315,0.737081 -1.825165,1.549067 -2.066335,1.804413 -0.241169,0.255346 -0.534795,0.464266 -0.652502,0.464266 -0.280819,0 -0.446417,1.610738 -0.446417,4.342195 0,2.472527 0.235753,3.476633 1.124115,4.787774 1.046452,1.544466 1.18426,1.802921 1.672822,3.137328 0.622297,1.699679 1.459023,3.18374 2.981314,5.287816 1.794204,2.479908 1.818359,2.542411 1.818359,4.705204 0,1.684316 -0.07873,2.132836 -0.803734,4.579046 -1.657868,5.59371 -2.672532,10.13764 -3.003318,13.44965 -0.119551,1.19701 -0.304833,2.1519 -0.448041,2.30907 -0.163496,0.17944 -0.30792,1.21006 -0.437043,3.11879 -0.369736,5.46552 -1.313501,10.89848 -2.479363,14.27293 l -0.643866,1.86359 0.106891,3.19472 c 0.233506,6.97899 1.270595,13.54458 2.630621,16.6539 0.210286,0.48076 0.37519,1.24134 0.37519,1.73047 0,0.55854 0.07783,0.87271 0.216192,0.87271 0.118906,0 0.444475,0.21462 0.723487,0.47692 0.3731,0.35076 0.507294,0.64708 0.507294,1.12018 0,0.38221 0.136773,0.78733 0.33702,0.99824 0.224292,0.23625 0.380311,0.76689 0.466443,1.58646 0.4262,4.05541 2.594883,10.28154 4.580817,13.1512 0.400025,0.57803 0.857965,1.15736 1.017645,1.2874 0.15968,0.13004 0.290326,0.40836 0.290326,0.61849 0,0.24018 0.507043,0.87469 1.365475,1.70874 0.751011,0.72968 1.517105,1.66046 1.70243,2.0684 0.441977,0.97289 1.212594,1.37685 2.369928,1.24235 l 0.851376,-0.0989 1.209329,1.32066 c 1.920603,2.09743 6.012942,5.76055 10.693431,9.57186 6.638641,5.40584 9.300524,7.77918 9.300524,8.29236 0,0.53695 0.716877,1.09424 2.681238,2.08437 2.094657,1.0558 3.363214,2.14064 3.558486,3.04314 0.161006,0.74414 0.610626,1.33881 2.451707,3.24269 3.355363,3.46982 4.442626,5.29315 4.956241,8.31158 0.136259,0.80077 0.64119,0.75275 0.64119,-0.061 0,-0.64954 0.456651,-1.75016 0.726148,-1.75016 1.0291,0 1.611114,1.7921 1.638944,5.04654 0.0076,0.88999 0.122711,1.88675 0.257547,2.23033 0.134083,0.34166 0.249979,0.48143 0.257547,0.3106 0.0213,-0.48068 1.692369,-0.43827 2.195794,0.0557 0.3207,0.3147 0.35638,0.49926 0.2532,1.30962 -0.0797,0.6259 -0.044,1.08287 0.10615,1.35813 0.20691,0.37937 0.26084,0.26363 0.63089,-1.35399 0.22256,-0.97285 0.61501,-2.27636 0.87211,-2.89669 z M 82.363769,185.65634 c -0.195052,-0.21909 -0.303537,-0.85968 -0.368201,-2.17419 -0.05108,-1.03833 -0.210448,-2.14227 -0.359887,-2.49289 -0.147579,-0.34627 -0.808089,-1.09442 -1.468548,-1.66341 -0.803818,-0.6925 -1.200336,-1.16443 -1.200336,-1.42863 0,-0.21699 -0.153575,-0.53091 -0.341278,-0.6976 -0.249031,-0.22115 -0.36176,-0.6187 -0.417052,-1.47079 -0.06763,-1.04221 -0.137353,-1.22171 -0.648679,-1.67003 -0.396655,-0.34777 -0.854669,-0.53898 -1.488787,-0.62152 -1.256221,-0.16353 -1.511555,-0.53025 -1.144569,-1.64389 0.14933,-0.45315 0.33254,-1.10344 0.407135,-1.4451 0.07459,-0.34166 0.281175,-0.89526 0.45907,-1.23023 0.259746,-0.48908 0.299766,-0.83581 0.20321,-1.76061 -0.258127,-2.47228 -1.176408,-3.59022 -4.2441,-5.16688 -2.397275,-1.23209 -2.913763,-1.84694 -2.913763,-3.46867 v -1.10153 l -1.853934,-0.0983 c -2.846772,-0.15098 -3.933959,-0.80051 -3.933959,-2.35031 0,-0.96838 0.270148,-1.69879 1.797273,-4.85935 1.803134,-3.73179 2.218291,-5.03826 2.318684,-7.29672 0.10883,-2.4483 -0.29677,-3.73859 -1.600677,-5.09206 -0.488089,-0.50665 -0.887435,-1.00559 -0.887435,-1.10877 0,-0.10318 -0.283311,-0.49532 -0.62958,-0.87142 -0.542182,-0.58889 -1.902623,-3.51576 -1.902623,-4.09332 0,-0.53498 -1.220385,-3.35725 -1.741273,-4.02687 -0.335532,-0.43134 -0.610059,-0.92938 -0.610059,-1.10675 0,-0.38502 -0.722963,-1.09431 -1.115409,-1.09431 -0.221582,0 -0.302681,-0.33398 -0.398654,-1.64173 -0.06627,-0.90295 -0.280365,-2.24074 -0.475776,-2.97287 -0.195411,-0.73212 -0.356688,-1.87024 -0.358393,-2.52915 l -0.0031,-1.19803 h -0.75017 -0.75017 l 0.115252,-1.47131 c 0.06339,-0.80922 0.325173,-2.54635 0.581742,-3.86029 0.492244,-2.52087 0.771882,-6.73839 0.545153,-8.22202 -0.158712,-1.03855 -0.505384,-1.24984 -1.640959,-1.00011 -0.566106,0.12449 -0.938441,0.12458 -1.175124,2.8e-4 -0.402062,-0.21115 -0.721574,-1.19658 -0.72302,-2.22993 -9.98e-4,-0.71351 -0.01849,-0.732251 -1.680737,-1.800198 -2.40543,-1.545426 -3.378941,-2.745913 -3.383669,-4.172575 -5.55e-4,-0.167395 -0.153041,-0.384195 -0.338859,-0.48178 -0.185817,-0.09758 -0.389695,-0.431801 -0.453063,-0.742706 -0.06337,-0.310904 -0.556225,-1.25219 -1.09524,-2.091747 -1.773468,-2.762314 -2.002588,-3.312629 -2.002588,-4.809934 0,-1.09623 0.07182,-1.429931 0.406961,-1.890987 0.223829,-0.307918 0.406962,-0.76716 0.406962,-1.020536 0,-0.321013 0.09629,-0.460685 0.31759,-0.460685 0.177507,0 0.421448,-0.230237 0.553052,-0.521983 0.244881,-0.542865 3.138598,-2.951817 4.7942,-3.99106 0.523959,-0.328896 1.063082,-0.72856 1.19805,-0.888141 0.224791,-0.265784 0.281086,-0.257247 0.670429,0.101672 0.233767,0.2155 0.425032,0.537633 0.425032,0.71585 0,0.290617 0.174408,0.324031 1.69129,0.324031 2.894252,0 3.373116,0.392659 3.373116,2.765882 0,1.207939 -0.07228,1.502804 -0.63305,2.582555 -0.735073,1.415362 -0.757898,1.585064 -0.271308,2.017175 0.282693,0.251043 0.361743,0.546647 0.361743,1.352719 0,0.970015 -0.0482,1.084736 -0.80902,1.925331 -0.54524,0.602415 -0.905757,1.220386 -1.105714,1.895333 -0.343836,1.160606 -0.26873,2.575256 0.161491,3.041742 0.159001,0.172405 0.394698,0.630837 0.523771,1.018739 0.188875,0.567624 0.331758,0.716237 0.732075,0.761436 0.363073,0.04099 0.497397,0.154869 0.497397,0.421674 0,0.352394 0.07475,0.362706 2.082477,0.287295 3.108418,-0.116753 3.306401,-0.334573 3.393687,-3.733696 l 0.04888,-1.903659 0.674039,-0.677351 c 0.370721,-0.372544 0.674038,-0.853688 0.674038,-1.069209 0,-0.273534 0.10923,-0.391857 0.361743,-0.391857 0.236352,0 0.361743,-0.118323 0.361743,-0.341352 0,-0.187743 0.192909,-0.567117 0.428686,-0.843052 0.699077,-0.818147 2.208394,-3.518138 2.942679,-5.26411 0.618968,-1.471772 0.681896,-1.768901 0.659435,-3.113644 -0.02317,-1.387388 -0.06049,-1.523613 -0.559138,-2.041073 -0.762952,-0.791736 -0.939458,-1.210505 -0.939458,-2.228902 0,-0.780768 0.04761,-0.899091 0.361743,-0.899091 0.281356,0 0.361743,-0.118323 0.361743,-0.532454 0,-0.500071 -0.04265,-0.532454 -0.70134,-0.532454 -0.415883,0 -0.797014,-0.113122 -0.936402,-0.27793 -0.129285,-0.152861 -0.456962,-0.390529 -0.728172,-0.52815 -0.722837,-0.366794 -1.251519,-1.314122 -1.251519,-2.242556 0,-0.871531 0.176905,-1.179021 1.024534,-1.780808 0.314796,-0.223494 0.917101,-0.665924 1.338458,-0.983177 1.146527,-0.863261 2.504253,-0.753829 2.886467,0.232647 0.205713,0.530932 0.578178,0.546157 1.858814,0.07598 0.534714,-0.196315 1.290628,-0.376018 1.67981,-0.39934 0.608752,-0.03648 0.715569,0.01254 0.76463,0.350879 0.07542,0.520103 0.958949,1.231602 1.857401,1.495744 0.714701,0.21012 0.730558,0.204507 1.490887,-0.527725 0.62617,-0.603032 0.894211,-0.740105 1.447249,-0.740105 0.40533,0 0.885204,-0.149782 1.191272,-0.371831 0.416624,-0.302255 0.931375,-0.40219 2.750969,-0.534079 2.49082,-0.180542 3.23518,-0.35915 4.080309,-0.979061 0.316671,-0.232281 0.736883,-0.422329 0.933806,-0.422329 0.472421,0 2.43109,-2.135853 3.011078,-3.283465 0.246671,-0.488083 0.516416,-1.37882 0.599434,-1.979416 0.182935,-1.323452 0.512814,-1.85549 1.42297,-2.295008 1.6277,-0.786024 4.376585,-0.224722 5.828855,1.190206 0.778269,0.758257 1.460719,2.176249 1.463009,3.039846 0.002,0.57537 -0.0542,0.665568 -0.41142,0.665568 -0.478729,0 -1.033789,0.790908 -1.033789,1.473069 0,0.243174 -0.45291,1.333615 -1.00647,2.423203 -1.326568,2.611105 -1.525732,3.207798 -1.525732,4.571063 0,1.037038 0.05797,1.216082 0.610532,1.885645 1.28577,1.558037 1.48932,2.446797 0.73084,3.19107 -0.5569,0.54647 -1.453134,0.854002 -4.235318,1.453298 -5.50776,1.186396 -7.246626,2.244244 -7.585543,4.614703 -0.09662,0.675774 -0.13514,0.712648 -0.800466,0.766234 -0.490811,0.03953 -0.975586,0.2722 -1.627845,0.781289 -0.510885,0.398746 -2.840375,1.635591 -5.176643,2.748543 -5.229473,2.491219 -7.151828,3.726689 -9.984601,6.416962 -2.067167,1.963179 -2.17966,2.106553 -2.20269,2.807373 -0.02074,0.631194 -0.17543,0.906405 -1.064282,1.893501 -0.871371,0.967683 -1.040012,1.262724 -1.040012,1.819529 0,0.37965 -0.133487,0.8093 -0.311365,1.00218 -0.487224,0.52829 -0.816478,1.85194 -0.901097,3.62252 -0.06302,1.31863 -0.143574,1.68343 -0.427391,1.93547 -0.31052,0.27576 -0.349684,0.56124 -0.349279,2.546 5.08e-4,2.48845 0.29649,3.8679 1.634125,7.61598 0.512132,1.43501 0.716751,2.29739 0.716751,3.02081 0,0.55685 0.162784,1.58888 0.361743,2.2934 0.21872,0.7745 0.361743,1.82626 0.361743,2.66018 0,1.21437 0.09729,1.62284 0.813923,3.41735 0.447657,1.12097 0.813922,2.10606 0.813922,2.18909 0,0.083 0.162785,0.35404 0.361744,0.60224 0.214107,0.26709 0.361743,0.72001 0.361743,1.10976 0,0.43309 0.123825,0.76846 0.361743,0.97974 0.21944,0.19487 0.361744,0.54665 0.361744,0.89423 0,0.42372 0.09424,0.59717 0.361743,0.66581 0.204814,0.0526 0.361743,0.2421 0.361743,0.43691 0,0.18924 0.162785,0.48863 0.361744,0.66532 0.198958,0.17668 0.361743,0.48342 0.361743,0.68163 0,0.19822 0.159046,0.52652 0.353436,0.72957 0.304986,0.31856 0.408007,0.97705 0.751514,4.80352 0.357642,3.98393 0.438036,4.47943 0.791468,4.87807 0.32956,0.37171 0.370726,0.5589 0.253704,1.15365 -0.499523,2.53875 0.194672,5.52058 2.113298,9.07742 0.858937,1.59233 1.16273,2.33747 1.16273,2.85191 0,1.13793 0.51924,2.54822 1.175186,3.19189 0.555216,0.54482 0.681569,0.58617 1.791109,0.58617 1.073172,0 1.193753,0.0359 1.193753,0.35497 0,0.23664 0.120581,0.35497 0.361743,0.35497 0.241163,0 0.361744,0.11832 0.361744,0.35496 0,0.23665 0.120581,0.35497 0.361743,0.35497 0.241162,0 0.361743,0.11833 0.361743,0.35497 0,0.23665 0.120582,0.35497 0.361744,0.35497 0.241162,0 0.361743,0.11833 0.361743,0.35497 0,0.32342 0.120581,0.35497 1.356538,0.35497 1.235956,0 1.356537,-0.0316 1.356537,-0.35497 0,-0.31914 0.120581,-0.35497 1.194776,-0.35497 1.362236,0 3.136805,0.39789 4.015623,0.90038 0.710857,0.40645 1.546069,0.42839 3.019262,0.0793 1.391412,-0.32968 2.445443,-0.33625 2.908302,-0.0181 0.284267,0.19538 0.700945,0.22343 1.863182,0.12542 l 1.49703,-0.12624 0.999809,-1.01284 c 0.5499,-0.55707 1.11325,-1.01285 1.25188,-1.01285 0.13864,0 0.25207,-0.15973 0.25207,-0.35496 0,-0.25769 0.12058,-0.35497 0.43999,-0.35497 0.28225,0 0.48147,-0.12824 0.55568,-0.35768 0.28322,-0.87565 4.18659,-3.36897 5.27483,-3.36936 1.04341,-3.7e-4 1.17045,0.44111 0.68944,2.3959 -0.14412,0.5857 -0.26331,1.63157 -0.26486,2.32417 -0.002,1.03163 -0.0682,1.31732 -0.36457,1.58049 -0.34081,0.30266 -0.36174,0.54665 -0.36174,4.21615 v 3.8949 l -0.60619,0.55908 c -0.84586,0.78012 -1.85997,1.35706 -2.92081,1.66166 -0.4974,0.14282 -1.55545,0.62571 -2.35123,1.0731 -1.54002,0.86579 -2.790499,1.13964 -3.500729,0.76666 -0.30977,-0.16268 -0.38811,-0.15437 -0.38811,0.0411 0,0.13473 -0.16279,0.38952 -0.361747,0.56621 -0.198959,0.17668 -0.361743,0.49615 -0.361743,0.70994 0,0.21378 -0.162785,0.53325 -0.361743,0.70993 -0.198959,0.17669 -0.361744,0.48342 -0.361744,0.68164 0,0.19822 -0.156441,0.52528 -0.347647,0.7268 -0.269903,0.28447 -0.360911,0.68615 -0.406961,1.7962 -0.04596,1.10787 -0.120399,1.43728 -0.330622,1.46308 -0.679783,0.0834 -0.886741,0.0899 -2.034806,0.0636 -0.993892,-0.0228 -1.220884,-0.0815 -1.220884,-0.31592 0,-0.23584 -0.0491,-0.24797 -0.271307,-0.067 -0.149219,0.12152 -0.271308,0.41719 -0.271308,0.65705 0,0.43129 -0.01348,0.43485 -1.220883,0.3226 -2.404441,-0.22356 -3.067053,-0.82309 -3.247794,-2.9386 -0.0674,-0.78883 -0.17994,-1.22479 -0.305953,-1.18514 -0.109637,0.0345 -0.610937,0.81581 -1.113999,1.73626 -1.208028,2.21031 -2.42084,3.03117 -3.194544,2.16214 z m 17.855441,-32.9518 c -2.717666,-0.52008 -5.795394,-1.89397 -8.26044,-3.68747 -1.924091,-1.39991 -2.142679,-1.39176 -5.251897,0.19585 -4.978641,2.54217 -8.475723,3.24395 -12.381841,2.48474 -1.041504,-0.20244 -1.264999,-0.49246 -0.921274,-1.19553 0.226266,-0.46281 0.237857,-0.46509 2.488221,-0.48948 4.318557,-0.0468 8.627172,-1.64332 11.068098,-4.10118 1.178815,-1.187 1.282635,-1.54624 1.13278,-3.91972 -0.118908,-1.88335 -0.164584,-2.062 -0.782646,-3.06117 -1.641416,-2.65354 -4.436319,-4.62669 -7.424585,-5.24161 -1.290617,-0.26558 -1.760084,-0.61345 -1.925914,-1.42707 -0.08066,-0.39577 -0.02241,-0.6346 0.210553,-0.8632 0.361136,-0.35437 0.436301,-0.34966 4.233094,0.26559 1.475181,0.23904 3.51804,0.40041 5.878329,0.46433 3.890331,0.10535 5.774717,-0.0653 9.981146,-0.9039 2.080906,-0.41486 2.088046,-0.41505 2.445596,-0.0642 0.28473,0.27939 0.33347,0.48558 0.23657,1.00082 -0.21295,1.13242 -1.633636,2.27285 -5.223433,4.193 -3.72492,1.99243 -4.546719,2.91326 -4.519547,5.06414 0.03544,2.8053 0.895223,4.70463 2.752994,6.08161 2.124344,1.57455 4.35763,2.25804 7.801606,2.38765 2.7162,0.10222 4.64516,-0.17453 6.58778,-0.94514 1.33597,-0.52996 1.55145,-0.53083 1.55145,-0.006 0,0.50463 -1.19116,1.87793 -2.23526,2.57707 -1.82873,1.22451 -4.78987,1.69847 -7.44138,1.19107 z m 17.63499,-12.95302 c -0.44766,-0.32619 -1.01124,-0.80342 -1.25241,-1.06051 -0.37782,-0.40276 -0.58509,-0.46744 -1.498,-0.46744 -1.20838,0 -2.18132,-0.34158 -2.90183,-1.01879 -0.79656,-0.74868 -0.62439,-1.28273 0.4974,-1.54289 0.31353,-0.0727 0.9626,-0.55136 1.53741,-1.13375 0.87278,-0.88429 1.02555,-1.1494 1.24561,-2.16156 0.13795,-0.63451 0.28734,-1.65283 0.33196,-2.26293 0.0673,-0.9199 0.13666,-1.10928 0.40635,-1.10928 0.36691,0 0.54214,-0.47193 0.54581,-1.46997 0.001,-0.36922 0.24351,-1.2877 0.53811,-2.04108 0.29461,-0.75338 0.58928,-1.70554 0.65484,-2.11593 0.0656,-0.41038 0.27218,-0.882 0.45915,-1.04804 0.18698,-0.16604 0.34284,-0.50915 0.34637,-0.76247 0.004,-0.25332 0.12273,-0.66025 0.2649,-0.90429 0.14217,-0.24404 0.26167,-0.88298 0.26557,-1.41987 0.005,-0.65327 0.12652,-1.16839 0.36815,-1.55728 0.19859,-0.31962 0.36107,-0.88839 0.36107,-1.26394 0,-0.54019 0.14504,-0.8432 0.6943,-1.45055 l 0.69429,-0.76772 1.03783,0.87801 c 1.10765,0.93707 2.87209,3.22089 3.64552,4.71859 0.25889,0.50132 0.51603,1.34245 0.57143,1.86916 0.0877,0.83419 0.0467,1.0141 -0.31847,1.3955 -0.29841,0.3117 -0.61104,0.43786 -1.08504,0.43786 h -0.66585 l -0.11844,1.3755 c -0.0651,0.75653 -0.16152,2.85307 -0.21417,4.65897 -0.13823,4.74081 -0.19343,5.14706 -0.69938,5.14706 -0.22613,0 -0.56599,-0.16792 -0.75527,-0.37314 -0.31359,-0.34003 -1.17887,-0.86925 -1.42123,-0.86925 -0.0547,0 -0.0994,0.26716 -0.0994,0.59368 0,0.36829 -0.13734,0.71566 -0.36174,0.91493 -0.19896,0.17669 -0.36174,0.50854 -0.36174,0.73745 0,0.28954 -0.10385,0.4162 -0.34123,0.4162 -0.308,0 -0.348,0.17929 -0.41067,1.8407 -0.0975,2.58591 -0.45346,2.91567 -1.96118,1.81707 z M 77.698504,113.63936 c -0.125047,-0.14785 -0.266597,-0.80696 -0.314555,-1.4647 l -0.0872,-1.19587 -1.561527,-4.1e-4 c -1.292405,-3.5e-4 -1.699515,-0.0725 -2.362178,-0.4185 -1.007053,-0.52586 -2.371262,-1.79374 -3.540269,-3.29029 l -0.904355,-1.15775 -1.451946,-0.007 c -1.012548,-0.004 -1.573599,-0.0901 -1.853935,-0.28278 -0.695439,-0.47799 -0.47476,-0.70734 0.999767,-1.03909 0.770966,-0.17345 2.335011,-0.67736 3.475657,-1.11979 2.029723,-0.78728 2.107849,-0.80252 3.667525,-0.71525 1.983741,0.11099 3.586564,0.80352 4.539116,1.96123 l 0.613369,0.74548 0.119106,3.95183 0.119106,3.95184 -0.468212,0.17468 c -0.621343,0.23181 -0.721883,0.22225 -0.989469,-0.0941 z m -0.909155,-4.78595 c 0.593966,-0.3014 1.27309,-1.08285 1.27309,-1.46491 0,-0.42093 -0.565782,-1.46713 -0.793424,-1.46713 -0.12323,0 -0.209591,0.28668 -0.209591,0.69576 0,0.95115 -0.470403,1.43405 -1.396941,1.43405 -1.835736,0 -3.317382,-1.92482 -2.398895,-3.11643 0.361227,-0.46864 0.347496,-0.52227 -0.195903,-0.76523 -0.688697,-0.30791 -1.0985,-0.10733 -1.234542,0.60425 -0.327169,1.71131 0.663568,3.51855 2.276375,4.15242 0.657302,0.25834 2.104772,0.21903 2.679831,-0.0728 z m 25.235251,3.16256 c -0.21555,-0.21152 -0.26679,-0.44979 -0.18129,-0.84305 0.0656,-0.30152 0.2832,-1.66636 0.48366,-3.03299 0.4906,-3.34463 0.43918,-3.15696 1.10261,-4.02382 0.38328,-0.5008 0.96579,-0.95364 1.67319,-1.30072 0.95478,-0.46846 1.26158,-0.53013 2.55269,-0.51307 1.38573,0.0183 1.59099,0.0757 3.68471,1.02987 1.21947,0.55577 2.86224,1.17989 3.6506,1.38694 1.24973,0.32823 1.42651,0.42368 1.3797,0.74498 -0.0489,0.33556 -0.18988,0.37244 -1.57681,0.41237 -1.69069,0.0487 -1.72095,0.0621 -3.71608,1.64555 -3.00544,2.38531 -5.43434,3.24054 -6.99237,2.46204 -0.24766,-0.12374 -0.30772,-0.008 -0.38059,0.73674 -0.13374,1.36576 -0.9594,2.00228 -1.68002,1.29516 z m 5.62666,-3.72688 c 1.31636,-0.66786 2.23318,-2.89584 1.72294,-4.18694 -0.20927,-0.52955 -0.81647,-0.65272 -1.48555,-0.30135 -0.3525,0.18512 -0.3524,0.19068 0.0119,0.64513 0.76688,0.95666 0.29763,2.20591 -1.0894,2.90027 -1.43993,0.72084 -2.52231,0.26173 -2.52231,-1.06986 0,-0.39047 -0.0768,-0.70994 -0.17062,-0.70994 -0.31028,0 -0.73374,0.77967 -0.73374,1.35096 0,1.58847 2.35031,2.34407 4.26679,1.37173 z m 29.37534,-2.3568 c -0.2487,-0.0748 -0.94053,-0.37599 -1.53741,-0.66924 -0.59688,-0.29325 -1.50845,-0.58032 -2.02572,-0.63795 -0.51727,-0.0576 -1.37189,-0.30703 -1.89915,-0.55424 -1.20443,-0.56469 -3.03869,-2.01943 -3.03869,-2.40997 0,-0.16209 0.32557,-0.55145 0.72349,-0.86523 0.71302,-0.56228 0.72348,-0.58757 0.72348,-1.748745 0,-0.965432 -0.071,-1.252405 -0.39327,-1.588998 l -0.39327,-0.410779 0.39327,-0.41078 c 0.32955,-0.344221 0.39327,-0.620467 0.39327,-1.704931 0,-1.169033 -0.0437,-1.327896 -0.45218,-1.643176 -0.4102,-0.316625 -0.45218,-0.472057 -0.45218,-1.674463 0,-1.085049 0.0718,-1.420705 0.39576,-1.850707 0.22577,-0.299655 0.56333,-0.525267 0.78589,-0.525267 0.21457,0 0.53441,-0.156437 0.71075,-0.347638 0.17633,-0.191201 0.7237,-0.479016 1.21636,-0.639589 0.59412,-0.193639 1.33306,-0.677317 2.19441,-1.436366 0.71426,-0.629429 1.54283,-1.26944 1.84127,-1.422246 0.29843,-0.152806 0.70539,-0.417741 0.90435,-0.588744 1.03696,-0.891254 2.18711,-0.472537 4.29571,1.563871 1.28006,1.236243 1.40175,1.414765 1.40175,2.056429 0,0.437485 0.12766,0.840942 0.33828,1.069071 0.29342,0.317824 0.35242,0.778251 0.44489,3.47239 0.0974,2.836521 0.0759,3.173102 -0.24784,3.879672 -0.25662,0.560145 -0.35446,1.164928 -0.35446,2.19116 0,1.088716 -0.0773,1.526726 -0.33346,1.888576 -0.18341,0.25911 -0.60636,1.05855 -0.9399,1.77653 -0.48042,1.03417 -0.81515,1.47283 -1.61091,2.11109 -1.46175,1.17246 -2.11841,1.41095 -3.08449,1.12027 z m -17.93193,-7.065935 c -0.77585,-0.80475 -1.42134,-1.834664 -1.42134,-2.267831 0,-0.174885 -0.42731,-0.771881 -0.94958,-1.326658 -1.68897,-1.794106 -3.57221,-4.076137 -3.57221,-4.328649 0,-0.141183 -0.27289,-0.296257 -0.64039,-0.363908 -1.42426,-0.26219 -2.26526,-0.81286 -4.78012,-3.129914 -1.88174,-1.733735 -2.53785,-2.447192 -2.53785,-2.759692 0,-0.379385 0.079,-0.421458 0.79115,-0.421458 0.4976,0 1.0848,0.159112 1.58262,0.428841 0.94311,0.510992 3.50661,1.294139 4.77132,1.457634 0.74159,0.09587 1.09838,0.281384 1.98893,1.034148 1.86797,1.578955 4.03374,3.113854 4.39369,3.113854 1.13386,0 1.84639,0.651216 1.84639,1.687513 0,0.232107 0.17043,0.70546 0.37873,1.051896 0.28932,0.481175 0.40218,1.047372 0.47803,2.398233 0.099,1.76321 0.0978,1.770077 -0.43256,2.362765 -0.29253,0.326929 -0.6396,0.849651 -0.77128,1.161605 -0.13169,0.311954 -0.29442,0.567189 -0.36165,0.567189 -0.0672,0 -0.41097,-0.299506 -0.76388,-0.665568 z"
           id="path1"
           sodipodi:nodetypes="csssssssssscccssssssssssssssssscsssssscssssssssssssssssssssssssssssssssscssssscsssssssssssssssscssssscsssssssssssssssssssscsssscssssssscsssssssscssssssssccssssssssssssssscccssssscscsssssssscsssssssssssssssssssssssssssssssssscsssssssssssssssscsssssssssssssssssssscsssssssssssssccssssssssssssssssssssssssssssssssscsssssssssssssscccssssssssssssssssssssssssssssssssscsssssssssssssssssssssssssssssssscssssssssssssssssssssssssssssscssssssssssssssssssssssssscssssssscsscsssssssssssssssssssssscsssssssssssssssssssssssccssssssssscscscscssscsscssccsssssssscsscscscsccssssscccsccsssssssssssscsssssssssscssssssssssssssssssscsssssssssssssscsssssssssssssssssssssssss" />
      </g>
      <g
         inkscape:label="Ebene 1"
         id="layer1-6"
         transform="translate(33.987068,46.783189)">
        <path
           inkscape:connector-curvature="0"
           d="m 44.065148,136.89173 -0.0033,-0.70652 c -0.04218,-0.0662 -0.07925,-0.0686 -0.134207,0.0235 l -0.382098,0.75089 c -0.249713,0.49073 -0.372895,1.20538 -0.822182,1.26476 -0.122685,0.0162 0.07896,0.0425 -1.429378,0.066 -0.988982,0.0154 -2.066097,-0.008 -2.573279,-0.022 -0.141305,-0.004 -0.264307,-0.12968 -0.264696,-0.19818 -0.01685,-2.96519 0.02335,-5.98586 0.07004,-8.93686 0.01162,-0.70109 0.07111,-0.93624 0.582136,-1.10614 0.185768,-0.0618 0.843553,-0.0699 0.989686,-0.0675 0.609338,0.0101 0.548347,-0.55013 -0.02049,-0.53787 -1.61818,0.0349 -2.559832,0.0276 -3.827039,0.0399 -0.520953,0.005 -0.498372,0.57743 0.107829,0.60564 0.388997,0.0181 0.600681,0.0515 0.585571,1.35334 -0.07721,2.85047 -0.104842,5.6458 -0.157289,8.53286 -0.0037,0.20633 -0.141391,0.37774 -0.309234,0.45283 -0.672526,0.0281 -1.013783,0.52821 0.0206,0.77937 2.085599,-0.0213 3.655114,0.002 5.743795,-0.012 0.460023,0.0133 -0.188533,0.006 0.525317,10e-6 0.999488,-0.009 1.234365,-0.17893 1.296192,-0.80006 0.02225,-0.35761 -0.01306,-2.20326 0.0021,-1.48179 z"
           style="fill:#000000"
           id="path1-0"
           sodipodi:nodetypes="cccssssssssssssscscsccc" />
        <path
           inkscape:connector-curvature="0"
           d="m 73.428458,134.28548 c 1.487881,-4.38959 1.687572,-5.29255 2.592425,-5.8714 0.414482,-0.26515 0.658892,-0.54041 0.536719,-0.70615 -0.1568,-0.21273 -0.735669,-0.16468 -1.878775,-0.16755 -1.277639,-0.003 -2.005879,-0.0291 -2.024231,0.18279 -0.0094,0.10811 0.204421,0.35391 0.531464,0.52719 0.90272,0.47832 0.630953,1.72289 -0.619743,5.18938 -1.395155,3.86687 -1.238292,3.85987 -2.93669,0.13072 -1.901177,-4.17405 -1.009147,-5.10885 0.03585,-5.26345 0.767665,-0.11357 0.781348,-0.7241 0.111918,-0.71291 -0.528346,0.009 -1.478919,0.0124 -2.426913,-7.4e-4 -0.758668,0.0288 -1.427879,0.0126 -1.780662,0.0547 -0.163128,0.0195 -0.301035,0.0481 -0.356505,0.13815 -0.123282,0.20004 0.236688,0.40454 0.655955,0.53334 1.887261,1.09582 0.991137,2.76438 -0.187045,5.97861 -1.150109,3.13758 -0.968629,3.20611 -2.994947,-1.13083 -1.812582,-3.87948 -1.961434,-4.74489 -0.810146,-4.90086 0.567323,-0.0768 0.581764,-0.64885 -0.0032,-0.6381 -0.944471,0.0174 -1.919437,-0.009 -2.675581,0.0105 -0.323001,0.008 -0.642799,-0.0803 -0.817474,0.0422 -0.300137,0.21039 -0.303858,0.70525 0.191632,0.94607 0.272585,0.13249 0.850579,1.11895 1.220036,1.85172 0.948338,1.20001 3.28051,8.8633 4.550646,8.77543 1.345462,-0.42327 2.530084,-5.68049 2.923734,-6.21906 0.275976,1.05329 2.603426,4.73975 3.564352,6.12777 0.137774,0.10128 0.231041,0.14564 0.352355,0.0559 0.981914,-1.32364 1.665271,-3.30306 2.244844,-4.93341 z"
           style="fill:#000000;stroke-width:0.97246701"
           id="path1-54"
           sodipodi:nodetypes="ssssssscsscsscssssssssssccss" />
        <path
           inkscape:connector-curvature="0"
           d="m 82.272906,139.172 c 1.895149,0.007 3.277752,-0.005 3.946003,-0.0666 0.330898,-0.0308 0.302488,-0.0433 0.437459,-0.1328 0.217019,-0.14394 0.187309,-0.58639 0.178252,-1.17879 0.02507,-1.22208 -0.157263,-1.48648 -0.813667,-0.43568 -0.626471,1.00289 -1.699682,1.16269 -3.723953,1.1179 -0.710842,-0.0157 -1.286819,-0.027 -1.94951,-0.0407 0,0 0.03558,-0.34299 0.03279,-0.40111 -0.07309,-1.51837 -0.07416,-3.02202 -0.06055,-4.55044 0.961064,-0.022 1.94137,-0.0177 2.914934,-0.0338 0.30236,-0.005 0.431198,0.9434 0.423179,1.29161 -0.0078,0.36496 0.526538,0.6059 0.526796,-0.0123 3.13e-4,-0.74855 -0.03605,-2.45973 -0.03752,-3.14005 -0.0028,-0.37889 -0.464021,-0.2353 -0.465478,0.0114 -0.0028,0.47551 -0.153628,0.95845 -0.427835,0.96351 -0.669129,0.0123 -1.428926,-0.0182 -2.958642,-0.0751 -0.03383,-0.89593 -0.04971,-2.84911 -0.05114,-3.51797 -2.77e-4,-0.12969 0.07719,-0.22871 0.214625,-0.30065 0.66649,-0.34888 3.198148,-0.33251 4.655208,0.18173 0.816794,0.28827 0.983853,0.91926 1.05371,1.27741 0.139862,0.71707 0.802389,0.6843 0.762764,-0.14702 -0.104674,-2.19606 0.397739,-2.40662 -1.223613,-2.41878 -1.378315,-0.0103 -3.94743,0.0296 -6.881345,0.0329 -1.03871,0.0669 -1.319863,0.75444 -0.487584,0.98844 0.46825,-0.006 0.354512,0.033 0.332847,4.18198 -0.01151,2.2042 0.05639,3.63267 -0.06072,4.56524 -0.09974,0.79421 -0.165975,1.27503 -0.417888,1.34611 -0.295156,0.0833 -0.553692,0.23885 -0.462933,0.36803 0.06002,0.0854 0.176917,0.16285 0.373582,0.11469 0.214081,0.039 2.059868,0.004 4.170278,0.0115 z"
           style="fill:#000000;stroke-width:0.974356"
           id="path1-8"
           sodipodi:nodetypes="csscsssscscsssscssssssccssssccc" />
        <path
           inkscape:connector-curvature="0"
           d="m 90.943668,139.08513 c 0.469752,-9.9e-4 0.484855,-0.50949 0.0088,-0.5428 -0.156185,-0.0109 -0.366165,0.15158 -0.352439,-0.92189 0.04046,-3.16465 -0.08348,-7.37368 0.03945,-7.47076 0.09848,-0.0778 0.175929,0.0685 0.423857,0.245 0.02567,0.0183 1.034311,1.23549 1.075822,1.28478 1.555009,1.8463 2.858051,3.78974 4.192249,5.53705 0.733349,0.96043 1.260427,1.60519 1.62659,1.78925 0.151759,0.0763 0.674719,-0.0523 0.754258,-0.13706 0.142887,-0.1523 0.100865,-0.53516 0.136408,-1.32111 0.05875,-1.29864 -0.02842,-3.57227 -0.04194,-7.06083 -0.0064,-1.62244 -0.04687,-2.36209 0.153205,-2.34 0.769981,0.085 0.764278,-0.82793 -9.14e-4,-0.83219 -1.093706,10e-4 -1.846627,-0.001 -2.287459,10e-4 -0.59397,0.003 -0.746451,0.6303 0.0082,0.79134 0.214568,0.0458 0.328244,0.0132 0.415403,0.10388 0.390614,0.40655 0.278401,1.34184 0.268898,4.37 -0.0082,2.68893 0.02522,3.15124 -1.124694,1.67406 -1.578471,-2.25095 -3.316315,-4.40977 -5.217769,-6.35108 -0.469112,-0.41585 -0.894712,-0.43834 -1.947177,-0.40954 -1.306442,0.0355 -1.569756,0.46639 -0.657977,1.07624 0.357248,0.23895 0.599554,0.4152 0.607859,1.04679 0.009,0.68735 0.04369,5.44865 0.04785,8.17964 0.01273,0.3838 -0.06968,0.76039 -0.252043,0.76177 -0.551853,0.004 -0.543129,0.52958 0.01003,0.52467 z"
           style="fill:#000000;stroke-width:0.95548999"
           id="path1-58"
           sodipodi:nodetypes="cssssssssssscssscsscsssscc" />
        <g
           id="g3"
           transform="matrix(0.88675253,0,0,1,-6.3793445,-181.17736)">
          <path
             inkscape:connector-curvature="0"
             style="fill:#000000"
             d="m 71.573626,314.38094 c -0.02596,-3.90382 -3.31253,-5.80065 -6.515876,-5.79978 -3.416424,9.2e-4 -6.634283,1.81203 -6.626146,5.93836 0.0075,3.80327 3.146474,5.82475 6.426277,5.84548 3.329946,0.0211 6.748608,-1.04187 6.715745,-5.98406 z m -6.754908,5.1025 c -3.562565,-0.033 -4.179884,-3.3644 -4.100443,-5.10094 0.09486,-2.07362 1.540248,-4.87058 4.329554,-4.84413 3.489126,0.033 4.300627,2.79514 4.358474,4.90799 0.07229,2.64028 -0.869595,5.07154 -4.587585,5.03708 z"
             id="path1-9"
             sodipodi:nodetypes="ssssssssss" />
          <ellipse
             style="fill:#000000;fill-opacity:1;stroke:#ffffff;stroke-width:0.26458299;stroke-opacity:0"
             id="path2"
             ry="1.0444736"
             rx="1.1291606"
             cy="307.28763"
             cx="59.97467" />
          <ellipse
             style="fill:#000000;fill-opacity:1;stroke:#ffffff;stroke-width:0.26458299;stroke-opacity:0"
             id="path2-8"
             ry="1.0444736"
             rx="1.1291606"
             cy="307.28528"
             cx="69.920624" />
        </g>
      </g>
    </g>
  </g>
</svg>
